[img]http://img823.imageshack.us/img823/1853/mamaka.jpg[/img]
[code]

Mama.2013.CAM.XVID-26K
 
http://www.imdb.com/title/tt2023587/

Plot:
Annabel and Lucas are faced with the challenge of raising his young nieces that were left alone in the forest for 5 

years.... but how alone were they?

Sources - Audio-friend....Thanks :P
          VIDEO-friend.....Thanks :P
          Subs-N/A....
Video
ID                                       : 0
Format                                   : MPEG-4 Visual
Format profile                           : Simple@L5
Format settings, BVOP                    : No
Format settings, QPel                    : No
Format settings, GMC                     : No warppoints
Format settings, Matrix                  : Default (H.263)
Codec ID                                 : XVID
Codec ID/Hint                            : XviD
Duration                                 : 1h 33mn
Bit rate                                 : 1 694 Kbps
Width                                    : 720 pixels
Height                                   : 420 pixels
Display aspect ratio                     : 1.714
Frame rate                               : 29.970 fps
Color space                              : YUV
Chroma subsampling                       : 4:2:0
Bit depth                                : 8 bits
Scan type                                : Progressive
Compression mode                         : Lossy
Bits/(Pixel*Frame)                       : 0.187
Stream size                              : 1.10 GiB (87%)
Writing library                          : XviD 64

Audio
ID                                       : 1
Format                                   : MPEG Audio
Format version                           : Version 1
Format profile                           : Layer 3
Mode                                     : Joint stereo
Mode extension                           : MS Stereo
Codec ID                                 : 55
Codec ID/Hint                            : MP3
Duration                                 : 1h 33mn
Bit rate mode                            : Constant
Bit rate                                 : 256 Kbps
Channel(s)                               : 2 channels
Sampling rate                            : 44.1 KHz
Compression mode                         : Lossy
Delay relative to video                  : 9ms
Stream size                              : 171 MiB (13%)
Alignment                                : Split accross interleaves
Interleave, duration                     : 8189 ms (245.41 video frames)

Notes -
the file was split into diffrent parts.. ran the video through various filters and here is the outcome... slight ar 

due to camera tilt. has slight flicker due to the fps it was recorded at.. got rid of mot of it so u have been 

warned.. overall not a bad cam.. audio is okay.. needed to change it's tempo a few times for sync ..enjoy till 

better pops along!

[/code]

Screens:
[img]http://imageshack.us/a/img23/9484/18331398.png[/img]
[img]http://imageshack.us/a/img607/8863/57601935.png[/img]
[img]http://imageshack.us/a/img145/2089/39539097.png[/img]
[img]http://imageshack.us/a/img600/8418/85226615.png[/img]
[img]http://imageshack.us/a/img832/3205/42145024.png[/img]
[img]http://imageshack.us/a/img687/6230/77151633.png[/img]
[img]http://imageshack.us/a/img845/4459/87556697.png[/img]
[img]http://imageshack.us/a/img687/9636/53918970.png[/img]
[img]http://imageshack.us/a/img59/2211/92822089.png[/img]
[img]http://imageshack.us/a/img831/6312/58885141.png[/img]

Greetz:
Silent Hill-HD|CM8|RX|VISION|HDSCENE|xTriLL|DTRG|CRYS|BIDA|RX|REFILL|INSPiRAL|AXED|HOPE|Anonymous|NOIR|Blackjesus|

Gabroo Punjab Deh|UNiQUE|DQ1|RESiSTANCE|HS||LEGION|STN|BOBBYBLUE|LIFT

To all the people who have helped me  you know who you are

Anything to offer email us @: 26k@hushmail.me
&lt;&lt;bullying has to be stopped now!&gt;&gt;